<svg width="25" height="24" viewBox="0 0 25 24" fill="none" xmlns="http://www.w3.org/2000/svg">
<path d="M20.27 13.75H16.23C14.22 13.75 13.25 12.82 13.25 10.9V4.1C13.25 2.18 14.23 1.25 16.23 1.25H20.27C22.28 1.25 23.25 2.18 23.25 4.1V10.9C23.25 12.82 22.27 13.75 20.27 13.75ZM16.23 2.75C14.96 2.75 14.75 3.09 14.75 4.1V10.9C14.75 11.91 14.96 12.25 16.23 12.25H20.27C21.54 12.25 21.75 11.91 21.75 10.9V4.1C21.75 3.09 21.54 2.75 20.27 2.75H16.23Z" fill="white"/>
<path d="M20.27 22.75H16.23C14.22 22.75 13.25 21.82 13.25 19.9V18.1C13.25 16.18 14.23 15.25 16.23 15.25H20.27C22.28 15.25 23.25 16.18 23.25 18.1V19.9C23.25 21.82 22.27 22.75 20.27 22.75ZM16.23 16.75C14.96 16.75 14.75 17.09 14.75 18.1V19.9C14.75 20.91 14.96 21.25 16.23 21.25H20.27C21.54 21.25 21.75 20.91 21.75 19.9V18.1C21.75 17.09 21.54 16.75 20.27 16.75H16.23Z" fill="white"/>
<path d="M8.77 22.75H4.73C2.72 22.75 1.75 21.82 1.75 19.9V13.1C1.75 11.18 2.73 10.25 4.73 10.25H8.77C10.78 10.25 11.75 11.18 11.75 13.1V19.9C11.75 21.82 10.77 22.75 8.77 22.75ZM4.73 11.75C3.46 11.75 3.25 12.09 3.25 13.1V19.9C3.25 20.91 3.46 21.25 4.73 21.25H8.77C10.04 21.25 10.25 20.91 10.25 19.9V13.1C10.25 12.09 10.04 11.75 8.77 11.75H4.73Z" fill="white"/>
<path d="M8.77 8.75H4.73C2.72 8.75 1.75 7.82 1.75 5.9V4.1C1.75 2.18 2.73 1.25 4.73 1.25H8.77C10.78 1.25 11.75 2.18 11.75 4.1V5.9C11.75 7.82 10.77 8.75 8.77 8.75ZM4.73 2.75C3.46 2.75 3.25 3.09 3.25 4.1V5.9C3.25 6.91 3.46 7.25 4.73 7.25H8.77C10.04 7.25 10.25 6.91 10.25 5.9V4.1C10.25 3.09 10.04 2.75 8.77 2.75H4.73Z" fill="white"/>
</svg>
