<svg width="49" height="48" viewBox="0 0 49 48" fill="none" xmlns="http://www.w3.org/2000/svg">
<path d="M0.5 10.2857C0.5 4.60507 5.10507 0 10.7857 0H38.2143C43.8949 0 48.5 4.60507 48.5 10.2857V37.7143C48.5 43.3949 43.8949 48 38.2143 48H10.7857C5.10507 48 0.5 43.3949 0.5 37.7143V10.2857Z" fill="#47B5FF"/>
<path d="M13.1327 16.9969C13.7453 14.7106 16.0953 13.3538 18.3816 13.9664C20.6679 14.579 22.0247 16.929 21.4121 19.2153L17.4189 34.1182C16.8063 36.4044 14.4563 37.7612 12.17 37.1486C9.88369 36.536 8.5269 34.186 9.13951 31.8997L13.1327 16.9969Z" fill="white"/>
<path d="M24.7238 16.9969C25.3364 14.7106 27.6864 13.3538 29.9727 13.9664C32.259 14.579 33.6158 16.929 33.0031 19.2153L29.0099 34.1182C28.3973 36.4044 26.0473 37.7612 23.761 37.1486C21.4747 36.536 20.118 34.186 20.7306 31.8997L24.7238 16.9969Z" fill="white"/>
<path d="M32.2144 33.4285C32.2144 31.0616 34.1331 29.1428 36.5001 29.1428C38.867 29.1428 40.7858 31.0616 40.7858 33.4285C40.7858 35.7955 38.867 37.7143 36.5001 37.7143C34.1331 37.7143 32.2144 35.7955 32.2144 33.4285Z" fill="white"/>
</svg>
